<?xml version="1.0" encoding="UTF-8" standalone="no" ?>
<!DOCTYPE svg PUBLIC "-//W3C//DTD SVG 1.1//EN" "http://www.w3.org/Graphics/SVG/1.1/DTD/svg11.dtd">
<svg xmlns="http://www.w3.org/2000/svg" xmlns:xlink="http://www.w3.org/1999/xlink" version="1.1" width="112" height="112" viewBox="0 0 640 640" xml:space="preserve">
<desc>Created with Fabric.js 4.6.0</desc>
<defs>
</defs>
<g transform="matrix(-5.2 0 0 5.2 320.37 320.37)" id="yryEUYngCOGCrqD6fUg0J"  >
<path style="stroke: none; stroke-width: 1; stroke-dasharray: none; stroke-linecap: butt; stroke-dashoffset: 0; stroke-linejoin: miter; stroke-miterlimit: 4; fill: rgb(225,225,225); fill-rule: nonzero; opacity: 1;" vector-effect="non-scaling-stroke"  transform=" translate(-61.44, -61.44)" d="M 37.95 4.66 C 45.19 1.66 53.13 0 61.44 0 C 78.4 0 93.77 6.88 104.88 18 C 110.53999999999999 23.66 115.1 30.43 118.22 37.95 C 121.22 45.190000000000005 122.88 53.13 122.88 61.44 C 122.88 78.4 116 93.77 104.88 104.88 C 99.22 110.53999999999999 92.44999999999999 115.1 84.92999999999999 118.22 C 77.69 121.22 69.75 122.88 61.44 122.88 C 53.129999999999995 122.88 45.19 121.22 37.95 118.22 C 30.42 115.1 23.660000000000004 110.53999999999999 18.000000000000004 104.88 C 12.34 99.22 7.77 92.46 4.66 84.93 C 1.66 77.69 0 69.75 0 61.44 C 0 53.129999999999995 1.66 45.19 4.66 37.95 C 7.77 30.42 12.34 23.66 18 18 C 23.65 12.34 30.42 7.77 37.95 4.66 L 37.95 4.66 z M 50 47.13 C 47.52 44.61 47.55 40.550000000000004 50.08 38.08 C 52.6 35.6 56.66 35.629999999999995 59.129999999999995 38.16 L 77.8 57.13 C 80.25 59.63 80.25 63.620000000000005 77.8 66.11 L 59.49 84.72 C 57.010000000000005 87.24 52.96 87.27 50.44 84.8 C 47.919999999999995 82.32 47.89 78.27 50.36 75.75 L 64.26 61.62 L 50 47.13 L 50 47.13 z M 42.86 16.55 C 36.93 19.01 31.58 22.62 27.1 27.1 C 22.62 31.580000000000002 19.01 36.93 16.55 42.86 C 14.18 48.57 12.88 54.85 12.88 61.44 C 12.88 68.03 14.190000000000001 74.3 16.55 80.02 C 19.01 85.94999999999999 22.62 91.3 27.1 95.78 C 31.580000000000002 100.26 36.93 103.87 42.86 106.33 C 48.58 108.7 54.85 110 61.44 110 C 68.03 110 74.3 108.69 80.02 106.33 C 85.94999999999999 103.87 91.3 100.25999999999999 95.78 95.78 C 100.26 91.3 103.87 85.96000000000001 106.33 80.02 C 108.7 74.31 110 68.03 110 61.44 C 110 54.849999999999994 108.69 48.58 106.33 42.86 C 103.87 36.93 100.25999999999999 31.58 95.78 27.1 C 91.3 22.62 85.95 19.01 80.02 16.55 C 74.31 14.18 68.03 12.88 61.44 12.88 C 54.849999999999994 12.88 48.58 14.19 42.86 16.55 L 42.86 16.55 z" stroke-linecap="round" />
</g>
</svg>